<svg id="Group_534" data-name="Group 534" xmlns="http://www.w3.org/2000/svg" viewBox="0 0 81.281 81.281">
  <circle id="Ellipse_164" data-name="Ellipse 164" cx="40.64" cy="40.64" r="40.64" fill="#2ec79b"/>
  <g id="time-to-market" transform="translate(20.879 20.874)">
    <path id="Path_994" data-name="Path 994" d="M391.227,269.316h-4.817a1.124,1.124,0,0,0-1.124,1.124v12.57h7.066V270.44A1.125,1.125,0,0,0,391.227,269.316Z" transform="translate(-356.435 -249.128)" fill="#fff"/>
    <path id="Path_995" data-name="Path 995" d="M129.343,417.733a1.124,1.124,0,0,0-1.124,1.124V420.3h7.066v-1.444a1.124,1.124,0,0,0-1.124-1.124Z" transform="translate(-118.638 -386.419)" fill="#fff"/>
    <path id="Path_996" data-name="Path 996" d="M257.876,343.524a1.124,1.124,0,0,0-1.124,1.124v7.007h7.066v-7.007a1.124,1.124,0,0,0-1.124-1.124Z" transform="translate(-237.537 -317.773)" fill="#fff"/>
    <path id="Path_997" data-name="Path 997" d="M96.39,262.5H66.2V245.24a10.514,10.514,0,0,1-2.249-.528v18.912a1.124,1.124,0,0,0,1.124,1.124H96.39A1.124,1.124,0,0,0,96.39,262.5Z" transform="translate(-59.189 -226.368)" fill="#fff"/>
    <path id="Path_998" data-name="Path 998" d="M149.849,142.349l.667.179-21.738,12.55a1.124,1.124,0,0,0,1.124,1.947l21.739-12.551-.179.67a1.124,1.124,0,1,0,2.173.581l.879-3.29a1.124,1.124,0,0,0-.795-1.376l-3.288-.882A1.124,1.124,0,0,0,149.849,142.349Z" transform="translate(-118.636 -129.636)" fill="#fff"/>
    <path id="Path_999" data-name="Path 999" d="M17.059,8.351A8.36,8.36,0,0,0,8.708,0c-11.063.42-11.06,16.283,0,16.7A8.36,8.36,0,0,0,17.059,8.351Zm-9.4.08V3.613a1.124,1.124,0,0,1,2.249,0V7.306H12.4a1.124,1.124,0,0,1,0,2.249H8.788A1.124,1.124,0,0,1,7.664,8.431Z" transform="translate(-0.412 0)" fill="#fff"/>
  </g>
</svg>
