<svg xmlns="http://www.w3.org/2000/svg" xmlns:xlink="http://www.w3.org/1999/xlink" width="25.104" height="25.132" viewBox="0 0 25.104 25.132">
    <defs>
        <linearGradient id="linear-gradient" x1="0.131" y1="0.979" x2="0.847" y2="0.045" gradientUnits="objectBoundingBox">
        <stop offset="0" stop-color="#c98b00"/>
        <stop offset="1" stop-color="#f0d393"/>
        </linearGradient>
    </defs>
    <path id="Path_25" data-name="Path 25" d="M616.344,269.875h-.04c-.651,0-1.322-.02-1.972,0a.638.638,0,0,1-.2-.02,10.421,10.421,0,0,0-1.525-3.7,2,2,0,0,1,.223-.245l1.342-1.342a12.253,12.253,0,0,0-2.908-2.887c-.468.488-.955.935-1.423,1.423a1.215,1.215,0,0,1-.183.142,10.254,10.254,0,0,0-3.7-1.525.311.311,0,0,1-.02-.142c.02-.346,0-.712,0-1.057v-1a12.51,12.51,0,0,0-4.026,0c.021.326,0,.671,0,1v1.057a.3.3,0,0,1-.021.142,10.251,10.251,0,0,0-3.7,1.525A.566.566,0,0,1,598,263.1c-.468-.488-.955-.956-1.423-1.423a12.616,12.616,0,0,0-2.908,2.887l1.342,1.342a2.007,2.007,0,0,1,.223.245,10.269,10.269,0,0,0-1.525,3.7.64.64,0,0,1-.2.02c-.651-.02-1.322,0-1.972,0h-.04c-.061.671-.123,1.363-.123,2.054a13.309,13.309,0,0,0,.163,2.033h2.216a10.162,10.162,0,0,0,1.566,3.741.237.237,0,0,1-.1.1c-.448.427-.9.875-1.342,1.322l-.142.143a12.459,12.459,0,0,0,2.887,2.867l.04-.04c.468-.488.955-.955,1.444-1.444a.363.363,0,0,1,.1-.081,10.526,10.526,0,0,0,3.721,1.525.457.457,0,0,1,.02.182c-.02.671,0,1.343-.02,2.013v.041a12.309,12.309,0,0,0,3.984,0v-.041c0-.67,0-1.342-.02-2.013a.575.575,0,0,1,.02-.182,10.227,10.227,0,0,0,3.721-1.525c.04.021.061.061.1.081.468.489.955.957,1.444,1.444l.04.04a13.329,13.329,0,0,0,2.887-2.867l-.142-.143c-.447-.447-.875-.894-1.342-1.322-.04-.04-.061-.081-.1-.1a10.534,10.534,0,0,0,1.565-3.741H616.3a13.547,13.547,0,0,0,.162-2.033A9.868,9.868,0,0,0,616.344,269.875Zm-7.752,2.826a4.6,4.6,0,0,1-.831,2,4.9,4.9,0,0,1-1.089,1.073,4.763,4.763,0,0,1-2,.817,4.782,4.782,0,0,1-1.512,0,4.759,4.759,0,0,1-3.084-1.89,4.6,4.6,0,0,1-.832-2,4.352,4.352,0,0,1-.06-.772,4.464,4.464,0,0,1,.06-.771,4.788,4.788,0,0,1,1.921-3.069,4.763,4.763,0,0,1,2-.817,4.777,4.777,0,0,1,1.512,0,4.932,4.932,0,0,1,2,.817,4.784,4.784,0,0,1,1.92,3.069,4.978,4.978,0,0,1,0,1.543Z" transform="translate(-591.375 -259.363)" fill="#C98B00"/>
</svg>