<svg xmlns="http://www.w3.org/2000/svg" xmlns:xlink="http://www.w3.org/1999/xlink" width="28.435" height="28.466" viewBox="0 0 28.435 28.466">
<defs>
    <linearGradient id="linear-gradient" x1="0.822" y1="0.054" x2="0.181" y2="0.937" gradientUnits="objectBoundingBox">
    <stop offset="0" stop-color="#ffc6c8"/>
    <stop offset="0.169" stop-color="#fdb7ba"/>
    <stop offset="0.717" stop-color="#f98e93"/>
    <stop offset="1" stop-color="#f87f84"/>
    </linearGradient>
</defs>
<path id="Path_21" data-name="Path 21" d="M377.954,211.714h-.046c-.737,0-1.5-.022-2.234,0a.723.723,0,0,1-.23-.022,11.809,11.809,0,0,0-1.727-4.192,2.287,2.287,0,0,1,.253-.277l1.521-1.52a13.908,13.908,0,0,0-3.294-3.27c-.53.553-1.082,1.059-1.612,1.613a1.367,1.367,0,0,1-.207.161,11.617,11.617,0,0,0-4.192-1.727.351.351,0,0,1-.022-.161c.022-.392,0-.806,0-1.2v-1.128a14.17,14.17,0,0,0-4.56,0c.024.369,0,.76,0,1.128v1.2a.342.342,0,0,1-.023.161,11.618,11.618,0,0,0-4.192,1.727.66.66,0,0,1-.207-.161c-.53-.553-1.082-1.084-1.612-1.613a14.322,14.322,0,0,0-3.293,3.27q.759.76,1.52,1.52a2.285,2.285,0,0,1,.253.277,11.631,11.631,0,0,0-1.727,4.192.725.725,0,0,1-.23.022c-.737-.022-1.5,0-2.234,0h-.046c-.069.76-.139,1.543-.139,2.326a15.094,15.094,0,0,0,.184,2.3h2.51a11.506,11.506,0,0,0,1.774,4.237.269.269,0,0,1-.115.115c-.508.484-1.014.991-1.52,1.5l-.161.162a14.1,14.1,0,0,0,3.27,3.246l.046-.046c.53-.553,1.082-1.082,1.636-1.636a.393.393,0,0,1,.115-.092,11.9,11.9,0,0,0,4.215,1.727.519.519,0,0,1,.022.206c-.022.76,0,1.52-.022,2.281v.046a13.878,13.878,0,0,0,4.513,0v-.046c0-.761,0-1.52-.022-2.281a.671.671,0,0,1,.022-.206,11.567,11.567,0,0,0,4.215-1.727c.046.023.069.069.115.092.53.553,1.082,1.083,1.636,1.636l.046.046a15.079,15.079,0,0,0,3.27-3.246l-.161-.162c-.506-.507-.99-1.013-1.52-1.5-.046-.046-.069-.092-.115-.115a11.93,11.93,0,0,0,1.773-4.237h2.511a15.337,15.337,0,0,0,.185-2.3A11.2,11.2,0,0,0,377.954,211.714Zm-8.78,3.2a5.217,5.217,0,0,1-.942,2.26A5.543,5.543,0,0,1,367,218.389a5.4,5.4,0,0,1-2.261.925,5.433,5.433,0,0,1-1.713,0,5.39,5.39,0,0,1-3.493-2.141,5.217,5.217,0,0,1-.942-2.26,4.884,4.884,0,0,1-.068-.874,5.016,5.016,0,0,1,.068-.874,5.421,5.421,0,0,1,2.175-3.475,5.407,5.407,0,0,1,2.26-.925,5.433,5.433,0,0,1,1.713,0,5.6,5.6,0,0,1,2.261.925,5.421,5.421,0,0,1,2.175,3.475,5.653,5.653,0,0,1,0,1.748Z" transform="translate(-349.672 -199.807)" fill="#C98B00"/>
</svg>