<svg id="Group_533" data-name="Group 533" xmlns="http://www.w3.org/2000/svg" viewBox="0 0 81.281 81.281">
  <circle id="Ellipse_163" data-name="Ellipse 163" cx="40.64" cy="40.64" r="40.64" transform="translate(0 0)" fill="#1293ec"/>
  <g id="neuromarketing" transform="translate(19.869 19.87)">
    <path id="Path_1222" data-name="Path 1222" d="M213.681,7.258V9.506a1.245,1.245,0,0,0,2.491,0V7.258a3.736,3.736,0,1,0-2.491,0Zm1.245-4.767a1.245,1.245,0,1,1-1.245,1.245A1.247,1.247,0,0,1,214.927,2.491Z" transform="translate(-193.672)" fill="#fff"/>
    <path id="Path_1223" data-name="Path 1223" d="M206.647,167.071a3.735,3.735,0,1,0-5.826,0A4.725,4.725,0,0,0,199,170.8V173.7a1.245,1.245,0,0,0,1.245,1.245h6.974a1.245,1.245,0,0,0,1.245-1.245V170.8A4.725,4.725,0,0,0,206.647,167.071Zm-2.913-3.581a1.245,1.245,0,1,1-1.245,1.245A1.247,1.247,0,0,1,203.734,163.49Zm2.242,8.967h-4.483V170.8a2.242,2.242,0,0,1,4.483,0Z" transform="translate(-182.48 -147.632)" fill="#fff"/>
    <path id="Path_1224" data-name="Path 1224" d="M216.172,386.066v-2.248a1.245,1.245,0,0,0-2.491,0v2.248a3.736,3.736,0,1,0,2.491,0Zm-1.245,4.767a1.245,1.245,0,1,1,1.245-1.245A1.247,1.247,0,0,1,214.927,390.833Z" transform="translate(-193.673 -350.816)" fill="#fff"/>
    <path id="Path_1225" data-name="Path 1225" d="M389.588,211a3.742,3.742,0,0,0-3.522,2.491h-2.248a1.245,1.245,0,0,0,0,2.491h2.248A3.736,3.736,0,1,0,389.588,211Zm0,4.981a1.245,1.245,0,1,1,1.245-1.245A1.247,1.247,0,0,1,389.588,215.982Z" transform="translate(-350.816 -193.482)" fill="#fff"/>
    <path id="Path_1226" data-name="Path 1226" d="M7.258,216.173H9.506a1.245,1.245,0,0,0,0-2.491H7.258a3.736,3.736,0,1,0,0,2.491Zm-3.522,0a1.245,1.245,0,1,1,1.245-1.245A1.247,1.247,0,0,1,3.736,216.173Z" transform="translate(0 -193.673)" fill="#fff"/>
    <path id="Path_1227" data-name="Path 1227" d="M342.3,70.882a1.241,1.241,0,0,0,.881-.365l1.59-1.59a3.736,3.736,0,1,0-1.761-1.761l-1.59,1.59a1.245,1.245,0,0,0,.881,2.126Zm3.2-6.206a1.245,1.245,0,1,1,0,1.761A1.247,1.247,0,0,1,345.5,64.676Z" transform="translate(-312.739 -56.69)" fill="#fff"/>
    <path id="Path_1228" data-name="Path 1228" d="M68.756,341.421l-1.59,1.59a3.736,3.736,0,1,0,1.761,1.761l1.59-1.59a1.245,1.245,0,0,0-1.761-1.761Zm-2.319,5.841a1.245,1.245,0,0,1-1.761-1.761A1.247,1.247,0,0,1,66.437,347.262Z" transform="translate(-56.689 -312.74)" fill="#fff"/>
    <path id="Path_1229" data-name="Path 1229" d="M346.381,342.645a3.721,3.721,0,0,0-1.611.364l-1.588-1.588a1.245,1.245,0,0,0-1.761,1.761l1.588,1.588a3.737,3.737,0,1,0,6.014-1.03A3.711,3.711,0,0,0,346.381,342.645Zm.881,4.617a1.245,1.245,0,1,1,0-1.761A1.247,1.247,0,0,1,347.262,347.262Z" transform="translate(-312.74 -312.74)" fill="#fff"/>
    <path id="Path_1230" data-name="Path 1230" d="M68.926,67.166a3.736,3.736,0,1,0-1.761,1.761l1.59,1.59a1.245,1.245,0,1,0,1.761-1.761ZM65.555,66.8a1.245,1.245,0,1,1,.881-2.126A1.249,1.249,0,0,1,65.555,66.8Z" transform="translate(-56.688 -56.689)" fill="#fff"/>
  </g>
</svg>
